<svg height="2078" width="720" xmlns="http://www.w3.org/2000/svg">
<rect height="2078" fill="#555" width="720"></rect>
<text fill="#7f7" font-family="Courier New" font-size="12" xml:space="preserve">
<tspan x="10" y="26">18 megabytes installed</tspan>
<tspan x="10" y="42"></tspan>
<tspan x="10" y="58">node_modules</tspan>
<tspan x="10" y="74">└─┬ devbridge-styleguide@0.4.17 </tspan>
<tspan x="10" y="90">  ├── async@1.2.1 </tspan>
<tspan x="10" y="106">  ├─┬ body-parser@1.12.4 </tspan>
<tspan x="10" y="122">  │ ├── bytes@1.0.0 </tspan>
<tspan x="10" y="138">  │ ├── content-type@1.0.2 </tspan>
<tspan x="10" y="154">  │ ├─┬ debug@2.2.0 </tspan>
<tspan x="10" y="170">  │ │ └── ms@0.7.1 </tspan>
<tspan x="10" y="186">  │ ├── depd@1.0.1 </tspan>
<tspan x="10" y="202">  │ ├── iconv-lite@0.4.8 </tspan>
<tspan x="10" y="218">  │ ├─┬ on-finished@2.2.1 </tspan>
<tspan x="10" y="234">  │ │ └── ee-first@1.1.0 </tspan>
<tspan x="10" y="250">  │ ├── qs@2.4.2 </tspan>
<tspan x="10" y="266">  │ ├─┬ raw-body@2.0.2 </tspan>
<tspan x="10" y="282">  │ │ └── bytes@2.1.0 </tspan>
<tspan x="10" y="298">  │ └─┬ type-is@1.6.15 </tspan>
<tspan x="10" y="314">  │   └── media-typer@0.3.0 </tspan>
<tspan x="10" y="330">  ├── colors@1.1.2 </tspan>
<tspan x="10" y="346">  ├─┬ commander@2.8.1 </tspan>
<tspan x="10" y="362">  │ └── graceful-readlink@1.0.1 </tspan>
<tspan x="10" y="378">  ├─┬ express@4.12.4 </tspan>
<tspan x="10" y="394">  │ ├─┬ accepts@1.2.13 </tspan>
<tspan x="10" y="410">  │ │ └── negotiator@0.5.3 </tspan>
<tspan x="10" y="426">  │ ├── content-disposition@0.5.0 </tspan>
<tspan x="10" y="442">  │ ├── cookie@0.1.2 </tspan>
<tspan x="10" y="458">  │ ├── cookie-signature@1.0.6 </tspan>
<tspan x="10" y="474">  │ ├── escape-html@1.0.1 </tspan>
<tspan x="10" y="490">  │ ├─┬ etag@1.6.0 </tspan>
<tspan x="10" y="506">  │ │ └── crc@3.2.1 </tspan>
<tspan x="10" y="522">  │ ├── finalhandler@0.3.6 </tspan>
<tspan x="10" y="538">  │ ├── fresh@0.2.4 </tspan>
<tspan x="10" y="554">  │ ├── merge-descriptors@1.0.0 </tspan>
<tspan x="10" y="570">  │ ├── methods@1.1.2 </tspan>
<tspan x="10" y="586">  │ ├── parseurl@1.3.1 </tspan>
<tspan x="10" y="602">  │ ├── path-to-regexp@0.1.3 </tspan>
<tspan x="10" y="618">  │ ├─┬ proxy-addr@1.0.10 </tspan>
<tspan x="10" y="634">  │ │ ├── forwarded@0.1.0 </tspan>
<tspan x="10" y="650">  │ │ └── ipaddr.js@1.0.5 </tspan>
<tspan x="10" y="666">  │ ├── range-parser@1.0.3 </tspan>
<tspan x="10" y="682">  │ ├─┬ send@0.12.3 </tspan>
<tspan x="10" y="698">  │ │ ├── destroy@1.0.3 </tspan>
<tspan x="10" y="714">  │ │ └── mime@1.3.4 </tspan>
<tspan x="10" y="730">  │ ├── serve-static@1.9.3 </tspan>
<tspan x="10" y="746">  │ ├── utils-merge@1.0.0 </tspan>
<tspan x="10" y="762">  │ └── vary@1.0.1 </tspan>
<tspan x="10" y="778">  ├── format-json@1.0.3 </tspan>
<tspan x="10" y="794">  ├── jsonfile@2.0.0 </tspan>
<tspan x="10" y="810">  ├── lodash@4.0.0 </tspan>
<tspan x="10" y="826">  ├─┬ mkdirp@0.5.1 </tspan>
<tspan x="10" y="842">  │ └── minimist@0.0.8 </tspan>
<tspan x="10" y="858">  ├── q@1.4.1 </tspan>
<tspan x="10" y="874">  ├─┬ request@2.68.0 </tspan>
<tspan x="10" y="890">  │ ├── aws-sign2@0.6.0 </tspan>
<tspan x="10" y="906">  │ ├─┬ bl@1.0.3 </tspan>
<tspan x="10" y="922">  │ │ └─┬ readable-stream@2.0.6 </tspan>
<tspan x="10" y="938">  │ │   ├── core-util-is@1.0.2 </tspan>
<tspan x="10" y="954">  │ │   ├── inherits@2.0.3 </tspan>
<tspan x="10" y="970">  │ │   ├── isarray@1.0.0 </tspan>
<tspan x="10" y="986">  │ │   ├── process-nextick-args@1.0.7 </tspan>
<tspan x="10" y="1002">  │ │   ├── string_decoder@0.10.31 </tspan>
<tspan x="10" y="1018">  │ │   └── util-deprecate@1.0.2 </tspan>
<tspan x="10" y="1034">  │ ├── caseless@0.11.0 </tspan>
<tspan x="10" y="1050">  │ ├─┬ combined-stream@1.0.5 </tspan>
<tspan x="10" y="1066">  │ │ └── delayed-stream@1.0.0 </tspan>
<tspan x="10" y="1082">  │ ├── extend@3.0.0 </tspan>
<tspan x="10" y="1098">  │ ├── forever-agent@0.6.1 </tspan>
<tspan x="10" y="1114">  │ ├─┬ form-data@1.0.1 </tspan>
<tspan x="10" y="1130">  │ │ └─┬ async@2.3.0 </tspan>
<tspan x="10" y="1146">  │ │   └── lodash@4.17.4 </tspan>
<tspan x="10" y="1162">  │ ├─┬ har-validator@2.0.6 </tspan>
<tspan x="10" y="1178">  │ │ ├─┬ chalk@1.1.3 </tspan>
<tspan x="10" y="1194">  │ │ │ ├── ansi-styles@2.2.1 </tspan>
<tspan x="10" y="1210">  │ │ │ ├── escape-string-regexp@1.0.5 </tspan>
<tspan x="10" y="1226">  │ │ │ ├─┬ has-ansi@2.0.0 </tspan>
<tspan x="10" y="1242">  │ │ │ │ └── ansi-regex@2.1.1 </tspan>
<tspan x="10" y="1258">  │ │ │ ├── strip-ansi@3.0.1 </tspan>
<tspan x="10" y="1274">  │ │ │ └── supports-color@2.0.0 </tspan>
<tspan x="10" y="1290">  │ │ ├── commander@2.9.0 </tspan>
<tspan x="10" y="1306">  │ │ ├─┬ is-my-json-valid@2.16.0 </tspan>
<tspan x="10" y="1322">  │ │ │ ├── generate-function@2.0.0 </tspan>
<tspan x="10" y="1338">  │ │ │ ├─┬ generate-object-property@1.2.0 </tspan>
<tspan x="10" y="1354">  │ │ │ │ └── is-property@1.0.2 </tspan>
<tspan x="10" y="1370">  │ │ │ ├── jsonpointer@4.0.1 </tspan>
<tspan x="10" y="1386">  │ │ │ └── xtend@4.0.1 </tspan>
<tspan x="10" y="1402">  │ │ └─┬ pinkie-promise@2.0.1 </tspan>
<tspan x="10" y="1418">  │ │   └── pinkie@2.0.4 </tspan>
<tspan x="10" y="1434">  │ ├─┬ hawk@3.1.3 </tspan>
<tspan x="10" y="1450">  │ │ ├── boom@2.10.1 </tspan>
<tspan x="10" y="1466">  │ │ ├── cryptiles@2.0.5 </tspan>
<tspan x="10" y="1482">  │ │ ├── hoek@2.16.3 </tspan>
<tspan x="10" y="1498">  │ │ └── sntp@1.0.9 </tspan>
<tspan x="10" y="1514">  │ ├─┬ http-signature@1.1.1 </tspan>
<tspan x="10" y="1530">  │ │ ├── assert-plus@0.2.0 </tspan>
<tspan x="10" y="1546">  │ │ ├─┬ jsprim@1.4.0 </tspan>
<tspan x="10" y="1562">  │ │ │ ├── assert-plus@1.0.0 </tspan>
<tspan x="10" y="1578">  │ │ │ ├── extsprintf@1.0.2 </tspan>
<tspan x="10" y="1594">  │ │ │ ├── json-schema@0.2.3 </tspan>
<tspan x="10" y="1610">  │ │ │ └── verror@1.3.6 </tspan>
<tspan x="10" y="1626">  │ │ └─┬ sshpk@1.13.0 </tspan>
<tspan x="10" y="1642">  │ │   ├── asn1@0.2.3 </tspan>
<tspan x="10" y="1658">  │ │   ├── assert-plus@1.0.0 </tspan>
<tspan x="10" y="1674">  │ │   ├── bcrypt-pbkdf@1.0.1 </tspan>
<tspan x="10" y="1690">  │ │   ├─┬ dashdash@1.14.1 </tspan>
<tspan x="10" y="1706">  │ │   │ └── assert-plus@1.0.0 </tspan>
<tspan x="10" y="1722">  │ │   ├── ecc-jsbn@0.1.1 </tspan>
<tspan x="10" y="1738">  │ │   ├─┬ getpass@0.1.6 </tspan>
<tspan x="10" y="1754">  │ │   │ └── assert-plus@1.0.0 </tspan>
<tspan x="10" y="1770">  │ │   ├── jodid25519@1.0.2 </tspan>
<tspan x="10" y="1786">  │ │   ├── jsbn@0.1.1 </tspan>
<tspan x="10" y="1802">  │ │   └── tweetnacl@0.14.5 </tspan>
<tspan x="10" y="1818">  │ ├── is-typedarray@1.0.0 </tspan>
<tspan x="10" y="1834">  │ ├── isstream@0.1.2 </tspan>
<tspan x="10" y="1850">  │ ├── json-stringify-safe@5.0.1 </tspan>
<tspan x="10" y="1866">  │ ├─┬ mime-types@2.1.15 </tspan>
<tspan x="10" y="1882">  │ │ └── mime-db@1.27.0 </tspan>
<tspan x="10" y="1898">  │ ├── node-uuid@1.4.8 </tspan>
<tspan x="10" y="1914">  │ ├── oauth-sign@0.8.2 </tspan>
<tspan x="10" y="1930">  │ ├── qs@6.0.4 </tspan>
<tspan x="10" y="1946">  │ ├── stringstream@0.0.5 </tspan>
<tspan x="10" y="1962">  │ ├── tough-cookie@2.2.2 </tspan>
<tspan x="10" y="1978">  │ └── tunnel-agent@0.4.3 </tspan>
<tspan x="10" y="1994">  └─┬ tcp-port-used@0.1.2 </tspan>
<tspan x="10" y="2010">    ├── debug@0.7.4 </tspan>
<tspan x="10" y="2026">    ├─┬ is2@0.0.9 </tspan>
<tspan x="10" y="2042">    │ └── deep-is@0.1.2 </tspan>
<tspan x="10" y="2058">    └── q@0.9.7</tspan>
</text>
</svg>
